<?xml version="1.0" encoding="UTF-8"?>
<svg version="1.1" xmlns="http://www.w3.org/2000/svg" width="118" height="62">
<path d="M0 0 C38.94 0 77.88 0 118 0 C118 20.46 118 40.92 118 62 C79.06 62 40.12 62 0 62 C0 41.54 0 21.08 0 0 Z " fill="#FAFBFD" transform="translate(0,0)"/>
<path d="M0 0 C15.18 0 30.36 0 46 0 C46 15.18 46 30.36 46 46 C39.07 46 32.14 46 25 46 C26.94770884 44.70152744 28.92646812 43.44806155 30.9375 42.25 C35.10913689 39.18512392 37.36865364 35.89403909 39 31 C39.60209983 25.02531711 39.05557132 20.29632363 36 15 C30.41634159 8.95103672 24.52620058 7.71124453 16.6875 7.375 C15.94693359 7.33632812 15.20636719 7.29765625 14.44335938 7.2578125 C12.62928691 7.16418295 10.81467884 7.08103149 9 7 C9 10.3 9 13.6 9 17 C10.02480469 16.94199219 11.04960938 16.88398438 12.10546875 16.82421875 C13.46610011 16.77730043 14.82678096 16.73180248 16.1875 16.6875 C16.86103516 16.64560547 17.53457031 16.60371094 18.22851562 16.56054688 C22.11308478 16.46580129 23.82476564 16.86700757 26.94921875 19.23828125 C29.57386128 22.77279985 29.726874 24.58986243 29.5 28.84375 C28.70000747 32.29371778 26.74407005 33.90927996 24 36 C21.49502996 37.25248502 19.79146726 37.11374406 16.9921875 37.09765625 C16.1038623 37.09515869 15.21553711 37.09266113 14.30029297 37.09008789 C13.16994629 37.08098389 12.03959961 37.07187988 10.875 37.0625 C5.491875 37.0315625 5.491875 37.0315625 0 37 C0 24.79 0 12.58 0 0 Z " fill="#784EA3" transform="translate(64,7)"/>
<path d="M0 0 C1.47533203 0.02707031 1.47533203 0.02707031 2.98046875 0.0546875 C5.40463783 0.10175874 7.82682059 0.16749258 10.25 0.25 C7.45908111 3.6927771 4.79111009 6.8454665 1.375 9.6875 C-1.28088013 11.95046902 -3.80793106 14.25775156 -6.25 16.75 C-9.24699457 19.79445828 -12.38339206 22.61630884 -15.6171875 25.40625 C-18.01432953 27.47850464 -20.38334823 29.58051222 -22.75 31.6875 C-23.513125 32.36683594 -24.27625 33.04617187 -25.0625 33.74609375 C-25.619375 34.24238281 -26.17625 34.73867188 -26.75 35.25 C-26.19571464 38.84895145 -25.01902636 40.2123207 -22.1875 42.4375 C-21.02848249 43.35865074 -19.87884042 44.29210669 -18.75 45.25 C-18.75 45.58 -18.75 45.91 -18.75 46.25 C-26.34 46.25 -33.93 46.25 -41.75 46.25 C-43.18391588 31.31337622 -43.18391588 31.31337622 -39.60546875 26.1640625 C-37.01920976 23.85824123 -34.40455211 21.75499055 -31.62060547 19.70117188 C-28.11448567 16.98120632 -24.96246169 13.86783256 -21.75 10.8125 C-19.92238102 9.10698537 -18.094355 7.40283248 -16.25097656 5.71435547 C-14.60249192 4.185031 -14.60249192 4.185031 -12.984375 1.85546875 C-9.11313423 -0.92613957 -4.61731965 -0.15985394 0 0 Z " fill="#6880EA" transform="translate(48.75,6.75)"/>
<path d="M0 0 C2.7298854 1.22072234 4.27130591 2.87647569 6.3203125 5.05078125 C9.93162193 8.79983548 13.65642292 12.26145318 17.63671875 15.61328125 C18.10980469 16.04640625 18.58289063 16.47953125 19.0703125 16.92578125 C19.0703125 17.25578125 19.0703125 17.58578125 19.0703125 17.92578125 C0.41512326 19.24095186 0.41512326 19.24095186 -5.10546875 16.14453125 C-7.01399334 14.16273607 -8.55459365 12.30432197 -9.9296875 9.92578125 C-8.62524182 7.0746357 -7.22416319 4.87830379 -5.0546875 2.61328125 C-4.31605469 1.81470703 -4.31605469 1.81470703 -3.5625 1 C-1.9296875 -0.07421875 -1.9296875 -0.07421875 0 0 Z " fill="#6A82EA" transform="translate(39.9296875,35.07421875)"/>
<path d="M0 0 C6.93 0 13.86 0 21 0 C14.24261196 7.88361938 14.24261196 7.88361938 11.38671875 10.52734375 C10.77892578 11.09130859 10.17113281 11.65527344 9.54492188 12.23632812 C8.93197266 12.79771484 8.31902344 13.35910156 7.6875 13.9375 C7.05521484 14.52595703 6.42292969 15.11441406 5.77148438 15.72070312 C1.13433689 20 1.13433689 20 0 20 C0 13.4 0 6.8 0 0 Z " fill="#6980EA" transform="translate(8,7)"/>
<path d="M0 0 C0.66 0.33 1.32 0.66 2 1 C1.28082397 1.60920288 1.28082397 1.60920288 0.54711914 2.23071289 C-10.40967707 11.04770274 -10.40967707 11.04770274 -15.48266602 23.48999023 C-15.50739249 26.35721601 -15.3595997 29.15589327 -15 32 C-15.33 32 -15.66 32 -16 32 C-17.78323501 17.91574567 -17.78323501 17.91574567 -14.88671875 13.1796875 C-11.7082844 9.55469626 -7.87820006 6.82827284 -4 4 C-2.6391615 2.69475131 -1.29351078 1.37200051 0 0 Z " fill="#8C9EEF" transform="translate(23,21)"/>
<path d="M0 0 C0 0.99 0 1.98 0 3 C-0.66 3.66 -1.32 4.32 -2 5 C2.29 5.33 6.58 5.66 11 6 C11 6.33 11 6.66 11 7 C4.07 7 -2.86 7 -10 7 C-7.96153279 5.64102186 -5.91973686 4.28702633 -3.875 2.9375 C-1.21312042 1.27685736 -1.21312042 1.27685736 0 0 Z " fill="#855FAC" transform="translate(99,46)"/>
</svg>
