<?xml version="1.0" encoding="UTF-8"?>
<svg version="1.1" xmlns="http://www.w3.org/2000/svg" width="271" height="58">
<path d="M0 0 C89.43 0 178.86 0 271 0 C271 19.14 271 38.28 271 58 C181.57 58 92.14 58 0 58 C0 38.86 0 19.72 0 0 Z " fill="#FAFBFD" transform="translate(0,0)"/>
<path d="M0 0 C15.18 0 30.36 0 46 0 C46 15.18 46 30.36 46 46 C39.07 46 32.14 46 25 46 C26.94770884 44.70152744 28.92646812 43.44806155 30.9375 42.25 C35.36125732 38.99989258 37.92858437 35.37729353 39 30 C39.62956994 24.5093245 39.29854988 19.64120168 36.4921875 14.79296875 C32.41935839 9.8991767 26.96658693 8.10895101 20.7890625 7.4765625 C16.85986007 7.17695864 12.93968276 7.05376738 9 7 C9 10.3 9 13.6 9 17 C10.02480469 16.94199219 11.04960938 16.88398438 12.10546875 16.82421875 C13.46610011 16.77730043 14.82678096 16.73180248 16.1875 16.6875 C16.86103516 16.64560547 17.53457031 16.60371094 18.22851562 16.56054688 C22.11308478 16.46580129 23.82476564 16.86700757 26.94921875 19.23828125 C29.57386128 22.77279985 29.726874 24.58986243 29.5 28.84375 C28.70000747 32.29371778 26.74407005 33.90927996 24 36 C21.49502996 37.25248502 19.79146726 37.11374406 16.9921875 37.09765625 C16.1038623 37.09515869 15.21553711 37.09266113 14.30029297 37.09008789 C13.16994629 37.08098389 12.03959961 37.07187988 10.875 37.0625 C5.491875 37.0315625 5.491875 37.0315625 0 37 C0 24.79 0 12.58 0 0 Z " fill="#784EA3" transform="translate(62,6)"/>
<path d="M0 0 C1.46856445 0.03383789 1.46856445 0.03383789 2.96679688 0.06835938 C5.37527455 0.12710273 7.78059078 0.20917871 10.1875 0.3125 C7.39658111 3.7552771 4.72861009 6.9079665 1.3125 9.75 C-1.34338013 12.01296902 -3.87043106 14.32025156 -6.3125 16.8125 C-9.28810297 19.83512153 -12.40228143 22.63293526 -15.61328125 25.40234375 C-19.73220352 28.97988014 -23.76489224 32.65472332 -27.8125 36.3125 C-27.07 37.22 -26.3275 38.1275 -25.5625 39.0625 C-24.93601562 39.82820313 -24.93601562 39.82820313 -24.296875 40.609375 C-22.56399722 42.59762424 -20.67743974 44.44756026 -18.8125 46.3125 C-26.0725 46.3125 -33.3325 46.3125 -40.8125 46.3125 C-42.24809447 30.40132794 -42.24809447 30.40132794 -38.59765625 25.08984375 C-36.00312108 22.77487742 -33.3987512 20.67834773 -30.58398438 18.6484375 C-27.47696262 16.30532518 -24.70208651 13.60555012 -21.875 10.9375 C-20.82465991 9.97087458 -19.77389709 9.00470824 -18.72265625 8.0390625 C-15.78420507 5.42823379 -15.78420507 5.42823379 -13.609375 2.48046875 C-9.31937633 -0.84487938 -5.25993643 -0.22961442 0 0 Z " fill="#6980EA" transform="translate(46.8125,5.6875)"/>
<path d="M0 0 C2.7298854 1.22072234 4.27130591 2.87647569 6.3203125 5.05078125 C9.93162193 8.79983548 13.65642292 12.26145318 17.63671875 15.61328125 C18.10980469 16.04640625 18.58289063 16.47953125 19.0703125 16.92578125 C19.0703125 17.25578125 19.0703125 17.58578125 19.0703125 17.92578125 C0.41512326 19.24095186 0.41512326 19.24095186 -5.10546875 16.14453125 C-7.01399334 14.16273607 -8.55459365 12.30432197 -9.9296875 9.92578125 C-8.62524182 7.0746357 -7.22416319 4.87830379 -5.0546875 2.61328125 C-4.31605469 1.81470703 -4.31605469 1.81470703 -3.5625 1 C-1.9296875 -0.07421875 -1.9296875 -0.07421875 0 0 Z " fill="#6A82EA" transform="translate(37.9296875,34.07421875)"/>
<path d="M0 0 C0.99 0 1.98 0 3 0 C3 0.99 3 1.98 3 3 C3.99 3 4.98 3 6 3 C6.66 3.66 7.32 4.32 8 5 C8.66 4.34 9.32 3.68 10 3 C15.33333333 2.66666667 15.33333333 2.66666667 18 4 C18 7.96 18 11.92 18 16 C9.375 16.25 9.375 16.25 6 14 C6 14.66 6 15.32 6 16 C4.33388095 16.042721 2.66617115 16.04063832 1 16 C0 15 0 15 -0.09765625 12.71484375 C-0.08025391 11.34005859 -0.08025391 11.34005859 -0.0625 9.9375 C-0.05347656 9.01839844 -0.04445312 8.09929688 -0.03515625 7.15234375 C-0.02355469 6.44207031 -0.01195312 5.73179688 0 5 C-0.66 5 -1.32 5 -2 5 C-2 4.34 -2 3.68 -2 3 C-1.34 3 -0.68 3 0 3 C0 2.01 0 1.02 0 0 Z " fill="#F0EDF7" transform="translate(240,13)"/>
<path d="M0 0 C6.93 0 13.86 0 21 0 C14.24261196 7.88361938 14.24261196 7.88361938 11.38671875 10.52734375 C10.77892578 11.09130859 10.17113281 11.65527344 9.54492188 12.23632812 C8.93197266 12.79771484 8.31902344 13.35910156 7.6875 13.9375 C7.05521484 14.52595703 6.42292969 15.11441406 5.77148438 15.72070312 C1.13433689 20 1.13433689 20 0 20 C0 13.4 0 6.8 0 0 Z " fill="#6980EA" transform="translate(6,6)"/>
<path d="M0 0 C9.16374951 -0.60287826 9.16374951 -0.60287826 12.6875 1.9375 C14.51862034 6.21011413 14.29693542 9.57164814 13 14 C11.5 16.0625 11.5 16.0625 9 17 C5.9524501 17.22068465 3.06553662 17.13524426 0 17 C0 11.39 0 5.78 0 0 Z " fill="#796DC7" transform="translate(195,12)"/>
<path d="M0 0 C0.825 0.04125 1.65 0.0825 2.5 0.125 C3.16 0.125 3.82 0.125 4.5 0.125 C5.49 0.125 6.48 0.125 7.5 0.125 C7.5809723 2.56316585 7.64046972 4.99864384 7.6875 7.4375 C7.72520508 8.47293945 7.72520508 8.47293945 7.76367188 9.52929688 C7.83734651 14.61284666 7.83734651 14.61284666 6.2109375 17.08203125 C3.32029721 18.8441339 0.77354182 18.48211365 -2.5 18.125 C-3.16 17.135 -3.82 16.145 -4.5 15.125 C-1.53 15.125 1.44 15.125 4.5 15.125 C4.17 14.135 3.84 13.145 3.5 12.125 C2.736875 12.33125 1.97375 12.5375 1.1875 12.75 C-1.5 13.125 -1.5 13.125 -4.5 11.125 C-4.86328125 9.03125 -4.86328125 9.03125 -4.8125 6.625 C-4.80863281 5.8309375 -4.80476562 5.036875 -4.80078125 4.21875 C-4.33172517 0.95363235 -3.2409224 0.16204612 0 0 Z " fill="#806ABD" transform="translate(222.5,15.875)"/>
<path d="M0 0 C1.875 1.0625 1.875 1.0625 3 3 C3.63316583 8.90954774 3.63316583 8.90954774 1.875 11.9375 C-0.88980433 13.50422245 -2.88188517 13.38976435 -6 13 C-7.875 11.9375 -7.875 11.9375 -9 10 C-9.63316583 4.09045226 -9.63316583 4.09045226 -7.875 1.0625 C-5.11019567 -0.50422245 -3.11811483 -0.38976435 0 0 Z " fill="#7982DE" transform="translate(146,16)"/>
<path d="M0 0 C0.99 0 1.98 0 3 0 C3.33 2.31 3.66 4.62 4 7 C5.98 4.69 7.96 2.38 10 0 C11.32 0.33 12.64 0.66 14 1 C12.35 2.65 10.7 4.3 9 6 C10.25756667 9.48249231 11.7731892 12.06465849 14 15 C14 15.66 14 16.32 14 17 C11.20171644 16.61402985 10.1794116 16.19863427 8.25 14.0625 C7 12 7 12 7 10 C6.01 10.33 5.02 10.66 4 11 C3.67 12.98 3.34 14.96 3 17 C2.01 17 1.02 17 0 17 C0 11.39 0 5.78 0 0 Z " fill="#7785E4" transform="translate(121,12)"/>
<path d="M0 0 C3.07921132 -0.25660094 5.21136993 -0.39431504 8 1 C8 4.96 8 8.92 8 13 C1.1640625 13.1953125 1.1640625 13.1953125 -1 13 C-1.66 12.34 -2.32 11.68 -3 11 C-3 9.68 -3 8.36 -3 7 C-0.09399739 5.74335022 1.79604584 5 5 5 C5 4.01 5 3.02 5 2 C2.69 2.33 0.38 2.66 -2 3 C-1.34 2.01 -0.68 1.02 0 0 Z " fill="#795AB0" transform="translate(250,16)"/>
<path d="M0 0 C0.99 0 1.98 0 3 0 C3 1.65 3 3.3 3 5 C4.134375 4.814375 5.26875 4.62875 6.4375 4.4375 C8.2009375 4.2209375 8.2009375 4.2209375 10 4 C11 5 11 5 11.09765625 7.72265625 C11.08605469 8.82480469 11.07445312 9.92695313 11.0625 11.0625 C11.05347656 12.16722656 11.04445312 13.27195312 11.03515625 14.41015625 C11.02355469 15.26480469 11.01195312 16.11945312 11 17 C10.01 17 9.02 17 8 17 C7.67 13.7 7.34 10.4 7 7 C6.01 7 5.02 7 4 7 C3.67 10.3 3.34 13.6 3 17 C2.01 17 1.02 17 0 17 C0 11.39 0 5.78 0 0 Z " fill="#7877D3" transform="translate(166,12)"/>
<path d="M0 0 C5 0 5 0 6.8125 1.125 C8.53501881 3.84476654 8.32855599 5.84586249 8 9 C7.01 10.485 7.01 10.485 6 12 C4.02 12 2.04 12 0 12 C0 8.04 0 4.08 0 0 Z " fill="#F7F8FC" transform="translate(198,14)"/>
<path d="M0 0 C0.66 1.32 1.32 2.64 2 4 C-0.31 3.67 -2.62 3.34 -5 3 C-5 5.31 -5 7.62 -5 10 C-1.535 9.505 -1.535 9.505 2 9 C1.34 10.32 0.68 11.64 0 13 C-5.625 13.25 -5.625 13.25 -9 11 C-9.9375 7.625 -9.9375 7.625 -10 4 C-7.29051062 -0.22680343 -4.81814183 -0.43801289 0 0 Z " fill="#8B90DF" transform="translate(161,16)"/>
<path d="M0 0 C0.99 0 1.98 0 3 0 C3 0.99 3 1.98 3 3 C3.66 3 4.32 3 5 3 C5 3.66 5 4.32 5 5 C4.34 5 3.68 5 3 5 C3 7.97 3 10.94 3 14 C3.99 14 4.98 14 6 14 C6 14.66 6 15.32 6 16 C4.33388095 16.042721 2.66617115 16.04063832 1 16 C0 15 0 15 -0.09765625 12.71484375 C-0.08025391 11.34005859 -0.08025391 11.34005859 -0.0625 9.9375 C-0.05347656 9.01839844 -0.04445312 8.09929688 -0.03515625 7.15234375 C-0.02355469 6.44207031 -0.01195312 5.73179688 0 5 C-0.66 5 -1.32 5 -2 5 C-2 4.34 -2 3.68 -2 3 C-1.34 3 -0.68 3 0 3 C0 2.01 0 1.02 0 0 Z " fill="#8268B9" transform="translate(240,13)"/>
<path d="M0 0 C0.78375 0.04125 1.5675 0.0825 2.375 0.125 C2.375 1.115 2.375 2.105 2.375 3.125 C1.055 3.455 -0.265 3.785 -1.625 4.125 C-1.625 6.105 -1.625 8.085 -1.625 10.125 C0.355 9.795 2.335 9.465 4.375 9.125 C3.715 10.445 3.055 11.765 2.375 13.125 C-3.5 12.25 -3.5 12.25 -4.625 11.125 C-4.79296875 9.12890625 -4.79296875 9.12890625 -4.8125 6.6875 C-4.82667969 5.88441406 -4.84085938 5.08132812 -4.85546875 4.25390625 C-4.48804017 0.85986255 -3.31968405 0.15808019 0 0 Z " fill="#7C69BF" transform="translate(222.625,15.875)"/>
<path d="M0 0 C0.99 0 1.98 0 3 0 C3 5.61 3 11.22 3 17 C2.01 17 1.02 17 0 17 C0 11.39 0 5.78 0 0 Z " fill="#8565B4" transform="translate(262,12)"/>
<path d="M0 0 C3.53571429 0.53571429 3.53571429 0.53571429 5 2 C5.125 4.5 5.125 4.5 5 7 C4 8 4 8 1.4375 8.0625 C0.633125 8.041875 -0.17125 8.02125 -1 8 C-1.625 5.125 -1.625 5.125 -2 2 C-1.34 1.34 -0.68 0.68 0 0 Z " fill="#EBE9F5" transform="translate(222,18)"/>
<path d="M0 0 C3.69230769 0.69230769 3.69230769 0.69230769 5 2 C5.1875 4.4375 5.1875 4.4375 5 7 C4.34 7.66 3.68 8.32 3 9 C0.875 8.625 0.875 8.625 -1 8 C-1.04241723 5.66705225 -1.04092937 3.33297433 -1 1 C-0.67 0.67 -0.34 0.34 0 0 Z " fill="#F2F4FC" transform="translate(141,18)"/>
<path d="M0 0 C1 2 2 4 3 6 C6.26954202 5.43628586 7.82575883 4.50037734 10 2 C10.125 4.375 10.125 4.375 10 7 C8 9 8 9 5.0625 9.3125 C2 9 2 9 0.125 7.8125 C-1.36366316 5.41409825 -1.29178308 3.77193929 -1 1 C-0.67 0.67 -0.34 0.34 0 0 Z " fill="#7077DA" transform="translate(138,20)"/>
<path d="M0 0 C0.66 0.33 1.32 0.66 2 1 C-3.61 6.61 -9.22 12.22 -15 18 C-15.66 17.34 -16.32 16.68 -17 16 C-16.10796875 15.18015625 -15.2159375 14.3603125 -14.296875 13.515625 C-13.11454214 12.42712808 -11.93225277 11.33858392 -10.75 10.25 C-9.87021484 9.44175781 -9.87021484 9.44175781 -8.97265625 8.6171875 C-5.91843019 5.80318147 -2.90859255 2.96618844 0 0 Z " fill="#EAEDFC" transform="translate(35,26)"/>
<path d="M0 0 C0.99 0 1.98 0 3 0 C3 4.29 3 8.58 3 13 C2.01 13 1.02 13 0 13 C0 8.71 0 4.42 0 0 Z " fill="#7F68BB" transform="translate(233,16)"/>
<path d="M0 0 C0.99 0 1.98 0 3 0 C3 4.29 3 8.58 3 13 C2.01 13 1.02 13 0 13 C0 8.71 0 4.42 0 0 Z " fill="#8171C5" transform="translate(212,16)"/>
<path d="M0 0 C0.33 0 0.66 0 1 0 C1.66 1.98 2.32 3.96 3 6 C6.465 5.505 6.465 5.505 10 5 C9.34 6.32 8.68 7.64 8 9 C2.375 9.25 2.375 9.25 -1 7 C-1.25 3.9375 -1.25 3.9375 -1 1 C-0.67 0.67 -0.34 0.34 0 0 Z " fill="#7375D5" transform="translate(153,20)"/>
<path d="M0 0 C0 0.99 0 1.98 0 3 C-0.66 3.66 -1.32 4.32 -2 5 C2.29 5.33 6.58 5.66 11 6 C11 6.33 11 6.66 11 7 C4.07 7 -2.86 7 -10 7 C-7.96153279 5.64102186 -5.91973686 4.28702633 -3.875 2.9375 C-1.21312042 1.27685736 -1.21312042 1.27685736 0 0 Z " fill="#8660AD" transform="translate(97,45)"/>
<path d="M0 0 C0.99 0 1.98 0 3 0 C3 0.99 3 1.98 3 3 C3.66 3 4.32 3 5 3 C5 3.66 5 4.32 5 5 C4.01 5 3.02 5 2 5 C2 7.31 2 9.62 2 12 C1.67 12 1.34 12 1 12 C1 9.69 1 7.38 1 5 C0.01 5 -0.98 5 -2 5 C-2 4.34 -2 3.68 -2 3 C-1.34 3 -0.68 3 0 3 C0 2.01 0 1.02 0 0 Z " fill="#765CB6" transform="translate(240,13)"/>
<path d="M0 0 C0.33 1.32 0.66 2.64 1 4 C-1.3125 4.625 -1.3125 4.625 -4 5 C-4.99 4.34 -5.98 3.68 -7 3 C-4.69 2.01 -2.38 1.02 0 0 Z " fill="#EAE7F4" transform="translate(226,27)"/>
<path d="M0 0 C1.65 0 3.3 0 5 0 C4.34 1.32 3.68 2.64 3 4 C1.68 4 0.36 4 -1 4 C-0.67 2.68 -0.34 1.36 0 0 Z " fill="#E4DFEF" transform="translate(251,23)"/>
<path d="M0 0 C0.33 0.99 0.66 1.98 1 3 C3.31 3.33 5.62 3.66 8 4 C7.67 4.66 7.34 5.32 7 6 C4.625 6.125 4.625 6.125 2 6 C1.34 5.34 0.68 4.68 0 4 C0 2.68 0 1.36 0 0 Z " fill="#8365B5" transform="translate(247,23)"/>
<path d="M0 0 C1.67542976 0.28604898 3.34385343 0.61781233 5 1 C5.33 1.99 5.66 2.98 6 4 C3.03824877 3.38722388 1.61941217 2.74627478 -1 1 C-0.67 0.67 -0.34 0.34 0 0 Z " fill="#7478D7" transform="translate(157,16)"/>
</svg>
